# xmcd
#
# Track frame offsets:
# 150
# 15199
# 33688
# 49657
# 62065
# 73195
# 91646
# 110795
# 127860
# 153758
# 168344
#
# Disc length: 2474 seconds
#
#
# Revision: 0
# Processed by: cddbd v1.5.2PL0 Copyright (c) Steve Scherf et al.
# Submitted via: FreeRIP 2.96 
#
DISCID=8309a80b
DTITLE=Kenny Klein - Meet Me In The Shade Of The Maple Tree
DYEAR=2008
DGENRE=Pagan Bluegrass
TTITLE0=Let Me Sing
TTITLE1=Diana's Moon
TTITLE2=Lilith
TTITLE3=Temple On The Stone
TTITLE4=Cakes
TTITLE5=Mab
TTITLE6=Herne
TTITLE7=Maple Tree
TTITLE8=Fur And Feather
TTITLE9=Blue Eyed Pagan Girl
TTITLE10=High Ground
EXTD=
EXTT0=
EXTT1=
EXTT2=
EXTT3=
EXTT4=
EXTT5=
EXTT6=
EXTT7=
EXTT8=
EXTT9=
EXTT10=
PLAYORDER=
